<mxfile host="app.diagrams.net" modified="2022-03-19T10:14:18.176Z" agent="5.0 (Windows NT 10.0; Win64; x64) AppleWebKit/537.36 (KHTML, like Gecko) Chrome/99.0.4844.51 Safari/537.36" etag="z_8fLXHggeIQeDSi3Du7" version="17.1.3" type="github">
  <diagram id="4phRcUqwEZl8Iw8vmw-g" name="Page-1">
    <mxGraphModel dx="1068" dy="957" grid="1" gridSize="10" guides="1" tooltips="1" connect="1" arrows="1" fold="1" page="1" pageScale="1" pageWidth="850" pageHeight="1100" math="0" shadow="0">
      <root>
        <mxCell id="0" />
        <mxCell id="1" parent="0" />
        <mxCell id="TD6Vft0t6dHITidnxQTA-15" value="Kunde bezieht strukturierte Testdaten" style="rounded=1;whiteSpace=wrap;html=1;align=center;verticalAlign=top;" vertex="1" parent="1">
          <mxGeometry x="120" y="20" width="570" height="390" as="geometry" />
        </mxCell>
        <mxCell id="TD6Vft0t6dHITidnxQTA-35" value="include" style="edgeStyle=orthogonalEdgeStyle;rounded=0;orthogonalLoop=1;jettySize=auto;html=1;dashed=1;" edge="1" parent="1" source="TD6Vft0t6dHITidnxQTA-6" target="TD6Vft0t6dHITidnxQTA-34">
          <mxGeometry relative="1" as="geometry" />
        </mxCell>
        <object label="Erstellt Daten&lt;br&gt;Vorlage" id="TD6Vft0t6dHITidnxQTA-6">
          <mxCell style="ellipse;whiteSpace=wrap;html=1;verticalAlign=middle;" vertex="1" parent="1">
            <mxGeometry x="450" y="170" width="120" height="60" as="geometry" />
          </mxCell>
        </object>
        <mxCell id="TD6Vft0t6dHITidnxQTA-8" value="Download der randomisierten Daten" style="ellipse;whiteSpace=wrap;html=1;" vertex="1" parent="1">
          <mxGeometry x="450" y="75" width="120" height="60" as="geometry" />
        </mxCell>
        <mxCell id="TD6Vft0t6dHITidnxQTA-14" value="" style="edgeStyle=orthogonalEdgeStyle;rounded=0;orthogonalLoop=1;jettySize=auto;html=1;" edge="1" parent="1" source="TD6Vft0t6dHITidnxQTA-12" target="TD6Vft0t6dHITidnxQTA-6">
          <mxGeometry relative="1" as="geometry">
            <mxPoint x="360" y="200" as="sourcePoint" />
            <Array as="points">
              <mxPoint x="280" y="200" />
            </Array>
          </mxGeometry>
        </mxCell>
        <mxCell id="TD6Vft0t6dHITidnxQTA-12" value="Nutzer xy" style="shape=umlActor;verticalLabelPosition=bottom;verticalAlign=top;html=1;outlineConnect=0;" vertex="1" parent="1">
          <mxGeometry x="200" y="90" width="70" height="140" as="geometry" />
        </mxCell>
        <mxCell id="TD6Vft0t6dHITidnxQTA-17" value="User Onboarding" style="rounded=1;whiteSpace=wrap;html=1;align=center;verticalAlign=top;" vertex="1" parent="1">
          <mxGeometry x="40" y="440" width="770" height="180" as="geometry" />
        </mxCell>
        <mxCell id="TD6Vft0t6dHITidnxQTA-20" value="" style="edgeStyle=orthogonalEdgeStyle;rounded=0;orthogonalLoop=1;jettySize=auto;html=1;" edge="1" parent="1" source="TD6Vft0t6dHITidnxQTA-18" target="TD6Vft0t6dHITidnxQTA-19">
          <mxGeometry relative="1" as="geometry" />
        </mxCell>
        <mxCell id="TD6Vft0t6dHITidnxQTA-18" value="Anonymer Nutzer xy" style="shape=umlActor;verticalLabelPosition=bottom;verticalAlign=top;html=1;outlineConnect=0;" vertex="1" parent="1">
          <mxGeometry x="90" y="490" width="40" height="70" as="geometry" />
        </mxCell>
        <mxCell id="TD6Vft0t6dHITidnxQTA-26" value="include" style="edgeStyle=orthogonalEdgeStyle;rounded=0;orthogonalLoop=1;jettySize=auto;html=1;dashed=1;" edge="1" parent="1" source="TD6Vft0t6dHITidnxQTA-19" target="TD6Vft0t6dHITidnxQTA-25">
          <mxGeometry relative="1" as="geometry" />
        </mxCell>
        <mxCell id="TD6Vft0t6dHITidnxQTA-19" value="Accountdaten&lt;br&gt;erfassen" style="ellipse;whiteSpace=wrap;html=1;verticalAlign=middle;" vertex="1" parent="1">
          <mxGeometry x="170" y="495" width="120" height="60" as="geometry" />
        </mxCell>
        <mxCell id="TD6Vft0t6dHITidnxQTA-25" value="Aktivierungsmail&lt;br&gt;versenden" style="ellipse;whiteSpace=wrap;html=1;" vertex="1" parent="1">
          <mxGeometry x="380" y="495" width="120" height="60" as="geometry" />
        </mxCell>
        <mxCell id="TD6Vft0t6dHITidnxQTA-29" value="E-Mail-System" style="shape=umlActor;verticalLabelPosition=bottom;verticalAlign=top;html=1;outlineConnect=0;" vertex="1" parent="1">
          <mxGeometry x="640" y="495" width="40" height="70" as="geometry" />
        </mxCell>
        <mxCell id="TD6Vft0t6dHITidnxQTA-32" value="" style="endArrow=classic;startArrow=classic;html=1;rounded=0;" edge="1" parent="1" source="TD6Vft0t6dHITidnxQTA-25" target="TD6Vft0t6dHITidnxQTA-29">
          <mxGeometry width="50" height="50" relative="1" as="geometry">
            <mxPoint x="330" y="760" as="sourcePoint" />
            <mxPoint x="380" y="710" as="targetPoint" />
          </mxGeometry>
        </mxCell>
        <mxCell id="TD6Vft0t6dHITidnxQTA-33" value="kommuniziert" style="edgeLabel;html=1;align=center;verticalAlign=middle;resizable=0;points=[];" vertex="1" connectable="0" parent="TD6Vft0t6dHITidnxQTA-32">
          <mxGeometry x="0.3046" relative="1" as="geometry">
            <mxPoint x="-19" as="offset" />
          </mxGeometry>
        </mxCell>
        <mxCell id="TD6Vft0t6dHITidnxQTA-34" value="Ausgabeformat&lt;br&gt;auswÃ¤hlen" style="ellipse;whiteSpace=wrap;html=1;" vertex="1" parent="1">
          <mxGeometry x="550" y="310" width="120" height="60" as="geometry" />
        </mxCell>
        <mxCell id="TD6Vft0t6dHITidnxQTA-36" value="Testdaten Struktur&lt;br&gt;selektieren" style="ellipse;whiteSpace=wrap;html=1;" vertex="1" parent="1">
          <mxGeometry x="330" y="310" width="120" height="60" as="geometry" />
        </mxCell>
        <mxCell id="TD6Vft0t6dHITidnxQTA-37" value="include" style="edgeStyle=orthogonalEdgeStyle;rounded=0;orthogonalLoop=1;jettySize=auto;html=1;dashed=1;" edge="1" parent="1" source="TD6Vft0t6dHITidnxQTA-6" target="TD6Vft0t6dHITidnxQTA-36">
          <mxGeometry relative="1" as="geometry">
            <mxPoint x="500" y="240" as="sourcePoint" />
            <mxPoint x="620" y="320" as="targetPoint" />
          </mxGeometry>
        </mxCell>
        <mxCell id="TD6Vft0t6dHITidnxQTA-39" value="auf PC" style="edgeStyle=orthogonalEdgeStyle;rounded=0;orthogonalLoop=1;jettySize=auto;html=1;" edge="1" parent="1" source="TD6Vft0t6dHITidnxQTA-12" target="TD6Vft0t6dHITidnxQTA-8">
          <mxGeometry relative="1" as="geometry">
            <mxPoint x="290" y="150" as="sourcePoint" />
            <mxPoint x="440.0000396353678" y="210.0344827586207" as="targetPoint" />
            <Array as="points">
              <mxPoint x="280" y="105" />
            </Array>
          </mxGeometry>
        </mxCell>
        <mxCell id="TD6Vft0t6dHITidnxQTA-40" value="User Onboarding" style="rounded=1;whiteSpace=wrap;html=1;align=center;verticalAlign=top;" vertex="1" parent="1">
          <mxGeometry x="40" y="630" width="770" height="330" as="geometry" />
        </mxCell>
        <mxCell id="TD6Vft0t6dHITidnxQTA-41" value="" style="edgeStyle=orthogonalEdgeStyle;rounded=0;orthogonalLoop=1;jettySize=auto;html=1;" edge="1" parent="1" source="TD6Vft0t6dHITidnxQTA-42" target="TD6Vft0t6dHITidnxQTA-44">
          <mxGeometry relative="1" as="geometry" />
        </mxCell>
        <mxCell id="TD6Vft0t6dHITidnxQTA-42" value="Registrierter Nutzer xx" style="shape=umlActor;verticalLabelPosition=bottom;verticalAlign=top;html=1;outlineConnect=0;" vertex="1" parent="1">
          <mxGeometry x="90" y="680" width="40" height="70" as="geometry" />
        </mxCell>
        <mxCell id="TD6Vft0t6dHITidnxQTA-44" value="Erstellte Vorlage&lt;br&gt;Vorlage speichern" style="ellipse;whiteSpace=wrap;html=1;verticalAlign=middle;" vertex="1" parent="1">
          <mxGeometry x="270" y="650" width="120" height="60" as="geometry" />
        </mxCell>
        <mxCell id="TD6Vft0t6dHITidnxQTA-49" value="Erstellte Vorlagen&amp;nbsp;laden" style="ellipse;whiteSpace=wrap;html=1;verticalAlign=middle;" vertex="1" parent="1">
          <mxGeometry x="270" y="730" width="120" height="60" as="geometry" />
        </mxCell>
        <mxCell id="TD6Vft0t6dHITidnxQTA-50" value="" style="edgeStyle=orthogonalEdgeStyle;rounded=0;orthogonalLoop=1;jettySize=auto;html=1;entryX=0;entryY=0.5;entryDx=0;entryDy=0;" edge="1" parent="1" target="TD6Vft0t6dHITidnxQTA-49">
          <mxGeometry relative="1" as="geometry">
            <mxPoint x="140" y="725.0000000000002" as="sourcePoint" />
            <mxPoint x="280.0000396353678" y="690.0344827586207" as="targetPoint" />
          </mxGeometry>
        </mxCell>
        <mxCell id="TD6Vft0t6dHITidnxQTA-51" value="" style="edgeStyle=orthogonalEdgeStyle;rounded=0;orthogonalLoop=1;jettySize=auto;html=1;" edge="1" parent="1" source="TD6Vft0t6dHITidnxQTA-42" target="TD6Vft0t6dHITidnxQTA-52">
          <mxGeometry relative="1" as="geometry">
            <mxPoint x="150" y="735.0000000000002" as="sourcePoint" />
            <mxPoint x="280" y="860" as="targetPoint" />
            <Array as="points">
              <mxPoint x="150" y="715" />
              <mxPoint x="150" y="860" />
            </Array>
          </mxGeometry>
        </mxCell>
        <mxCell id="TD6Vft0t6dHITidnxQTA-52" value="REST API&amp;nbsp;&lt;br&gt;Online stellen" style="ellipse;whiteSpace=wrap;html=1;verticalAlign=middle;" vertex="1" parent="1">
          <mxGeometry x="272" y="830" width="120" height="60" as="geometry" />
        </mxCell>
        <mxCell id="TD6Vft0t6dHITidnxQTA-53" value="Mustererkennung externe Daten" style="rounded=1;whiteSpace=wrap;html=1;align=center;verticalAlign=top;" vertex="1" parent="1">
          <mxGeometry x="30" y="990" width="770" height="330" as="geometry" />
        </mxCell>
        <mxCell id="TD6Vft0t6dHITidnxQTA-56" value="" style="edgeStyle=orthogonalEdgeStyle;rounded=0;orthogonalLoop=1;jettySize=auto;html=1;" edge="1" parent="1" source="TD6Vft0t6dHITidnxQTA-54" target="TD6Vft0t6dHITidnxQTA-55">
          <mxGeometry relative="1" as="geometry" />
        </mxCell>
        <mxCell id="TD6Vft0t6dHITidnxQTA-54" value="Registrierter Nutzer xx" style="shape=umlActor;verticalLabelPosition=bottom;verticalAlign=top;html=1;outlineConnect=0;" vertex="1" parent="1">
          <mxGeometry x="90" y="1070" width="40" height="70" as="geometry" />
        </mxCell>
        <mxCell id="TD6Vft0t6dHITidnxQTA-55" value="Externe Datensource&amp;nbsp;&lt;br&gt;in Vorlage einbauen" style="ellipse;whiteSpace=wrap;html=1;verticalAlign=middle;" vertex="1" parent="1">
          <mxGeometry x="220" y="1075" width="120" height="60" as="geometry" />
        </mxCell>
        <mxCell id="TD6Vft0t6dHITidnxQTA-57" value="Mustererkennung&lt;br&gt;um auf eigene Datentypen zu mappen" style="ellipse;whiteSpace=wrap;html=1;" vertex="1" parent="1">
          <mxGeometry x="100" y="1220" width="150" height="80" as="geometry" />
        </mxCell>
        <mxCell id="TD6Vft0t6dHITidnxQTA-58" value="include" style="edgeStyle=orthogonalEdgeStyle;rounded=0;orthogonalLoop=1;jettySize=auto;html=1;dashed=1;" edge="1" parent="1" target="TD6Vft0t6dHITidnxQTA-57" source="TD6Vft0t6dHITidnxQTA-55">
          <mxGeometry relative="1" as="geometry">
            <mxPoint x="300" y="1180" as="sourcePoint" />
            <mxPoint x="410" y="1270" as="targetPoint" />
          </mxGeometry>
        </mxCell>
      </root>
    </mxGraphModel>
  </diagram>
</mxfile>
